<svg aria-hidden="true" style="position: absolute; width: 0; height: 0; overflow: hidden;" version="1.1" xmlns="http://www.w3.org/2000/svg" xmlns:xlink="http://www.w3.org/1999/xlink">
<defs>
<symbol id="icon-you-tube-icon" viewBox="0 0 32 32">
<path stroke-linejoin="miter" stroke-linecap="butt" stroke-miterlimit="4" stroke-width="0.8" d="M4.8 0.4h22.4c2.43 0 4.4 1.97 4.4 4.4v22.4c0 2.43-1.97 4.4-4.4 4.4h-22.4c-2.43 0-4.4-1.97-4.4-4.4v-22.4c0-2.43 1.97-4.4 4.4-4.4z"></path>
<path d="M20.12 11c-0.68-0.040-2.080-0.080-4.2-0.080h-0.28c-2.040 0-3.4 0.040-4.080 0.12-0.92 0.080-1.56 0.32-1.92 0.64-0.32 0.28-0.56 0.8-0.64 1.48-0.040 0.44-0.080 1.36-0.080 2.76v0.2c0 1.32 0.040 2.24 0.12 2.68 0.12 0.64 0.32 1.12 0.72 1.4 0.4 0.32 1.080 0.52 2.040 0.6 0.68 0.040 2.080 0.080 4.2 0.080h0.28c2.040 0 3.4-0.040 4.080-0.12 0.92-0.080 1.56-0.32 1.92-0.64 0.32-0.28 0.56-0.8 0.64-1.48 0.040-0.44 0.080-1.36 0.080-2.76v-0.2c0-1.32-0.040-2.24-0.12-2.68-0.12-0.64-0.32-1.12-0.72-1.4-0.4-0.32-1.080-0.52-2.040-0.6zM18.56 15.92l-4.4 2.64v-5.28l4.4 2.64z"></path>
</symbol>
<symbol id="icon-instagram-icon" viewBox="0 0 32 32">
<path stroke-linejoin="miter" stroke-linecap="butt" stroke-miterlimit="4" stroke-width="0.8" d="M4.8 0.4h22.4c2.43 0 4.4 1.97 4.4 4.4v22.4c0 2.43-1.97 4.4-4.4 4.4h-22.4c-2.43 0-4.4-1.97-4.4-4.4v-22.4c0-2.43 1.97-4.4 4.4-4.4z"></path>
<path d="M19.845 11.291c-0.171 0-0.338 0.051-0.48 0.146s-0.253 0.23-0.318 0.388c-0.065 0.158-0.082 0.332-0.049 0.499s0.116 0.322 0.236 0.442c0.121 0.121 0.275 0.203 0.442 0.236s0.341 0.016 0.499-0.049c0.158-0.065 0.293-0.176 0.388-0.318s0.146-0.309 0.146-0.48c0-0.229-0.091-0.449-0.253-0.611s-0.382-0.253-0.611-0.253zM23.157 13.034c-0.014-0.597-0.126-1.188-0.331-1.75-0.183-0.48-0.468-0.915-0.835-1.274-0.357-0.369-0.792-0.652-1.274-0.828-0.56-0.212-1.151-0.326-1.75-0.338-0.763-0.043-1.008-0.043-2.966-0.043s-2.203 0-2.966 0.043c-0.598 0.012-1.19 0.127-1.75 0.338-0.481 0.178-0.917 0.46-1.274 0.828-0.369 0.357-0.652 0.792-0.828 1.274-0.212 0.56-0.326 1.151-0.338 1.75-0.043 0.763-0.043 1.008-0.043 2.966s0 2.203 0.043 2.966c0.012 0.598 0.127 1.19 0.338 1.75 0.176 0.482 0.459 0.918 0.828 1.274 0.358 0.368 0.793 0.65 1.274 0.828 0.56 0.212 1.151 0.326 1.75 0.338 0.763 0.043 1.008 0.043 2.966 0.043s2.203 0 2.966-0.043c0.598-0.012 1.19-0.127 1.75-0.338 0.482-0.176 0.918-0.459 1.274-0.828 0.369-0.358 0.654-0.793 0.835-1.274 0.205-0.561 0.317-1.152 0.331-1.75 0-0.763 0.043-1.008 0.043-2.966s0-2.203-0.043-2.966zM21.861 18.88c-0.005 0.457-0.088 0.91-0.245 1.339-0.115 0.313-0.3 0.596-0.54 0.828-0.234 0.238-0.516 0.422-0.828 0.54-0.429 0.157-0.882 0.24-1.339 0.245-0.72 0.036-0.986 0.043-2.88 0.043s-2.16 0-2.88-0.043c-0.475 0.009-0.947-0.064-1.397-0.216-0.298-0.124-0.568-0.308-0.792-0.54-0.239-0.231-0.421-0.515-0.533-0.828-0.176-0.436-0.273-0.899-0.288-1.368 0-0.72-0.043-0.986-0.043-2.88s0-2.16 0.043-2.88c0.003-0.467 0.089-0.93 0.252-1.368 0.127-0.304 0.321-0.575 0.569-0.792 0.219-0.248 0.489-0.444 0.792-0.576 0.439-0.158 0.901-0.241 1.368-0.245 0.72 0 0.986-0.043 2.88-0.043s2.16 0 2.88 0.043c0.457 0.005 0.91 0.088 1.339 0.245 0.327 0.121 0.621 0.319 0.857 0.576 0.236 0.221 0.42 0.492 0.54 0.792 0.16 0.438 0.243 0.901 0.245 1.368 0.036 0.72 0.043 0.986 0.043 2.88s-0.007 2.16-0.043 2.88zM16 12.306c-0.73 0.001-1.444 0.219-2.050 0.626s-1.079 0.984-1.357 1.659c-0.278 0.675-0.351 1.417-0.207 2.133s0.496 1.374 1.013 1.889c0.517 0.516 1.175 0.867 1.891 1.009s1.459 0.068 2.133-0.211 1.251-0.753 1.656-1.36c0.406-0.607 0.622-1.321 0.622-2.051 0.001-0.486-0.094-0.967-0.28-1.416s-0.458-0.857-0.802-1.2c-0.344-0.343-0.752-0.615-1.202-0.8s-0.931-0.279-1.417-0.277zM16 18.398c-0.474 0-0.938-0.141-1.332-0.404s-0.702-0.638-0.883-1.076c-0.181-0.438-0.229-0.92-0.136-1.385s0.321-0.892 0.656-1.228 0.763-0.564 1.228-0.656c0.465-0.093 0.947-0.045 1.385 0.136s0.813 0.489 1.076 0.883c0.263 0.394 0.404 0.858 0.404 1.332 0 0.315-0.062 0.627-0.182 0.918s-0.297 0.555-0.52 0.778c-0.223 0.223-0.487 0.399-0.778 0.52s-0.603 0.182-0.918 0.182z"></path>
</symbol>
<symbol id="icon-facebook-icon" viewBox="0 0 32 32">
<path stroke-linejoin="miter" stroke-linecap="butt" stroke-miterlimit="4" stroke-width="0.8" d="M4.8 0.4h22.4c2.43 0 4.4 1.97 4.4 4.4v22.4c0 2.43-1.97 4.4-4.4 4.4h-22.4c-2.43 0-4.4-1.97-4.4-4.4v-22.4c0-2.43 1.97-4.4 4.4-4.4z"></path>
<path d="M18.552 10.523h1.448v-2.417c-0.701-0.072-1.405-0.107-2.11-0.106-2.094 0-3.526 1.262-3.526 3.572v1.991h-2.364v2.706h2.364v6.931h2.833v-6.931h2.356l0.354-2.706h-2.71v-1.725c0-0.798 0.216-1.315 1.355-1.315z"></path>
</symbol>
</defs>
</svg>
